<mxfile host="app.diagrams.net" modified="2021-03-28T16:44:44.515Z" agent="5.0 (Windows NT 10.0; Win64; x64) AppleWebKit/537.36 (KHTML, like Gecko) Chrome/89.0.4389.90 Safari/537.36" etag="2mKFvP77d_D7qmfB9MTj" version="14.5.3" type="github" pages="4">
  <diagram name="Login Module" id="3mVHYXctMBW3wJz3Hiqr">
    <mxGraphModel dx="1038" dy="2886" grid="1" gridSize="10" guides="1" tooltips="1" connect="1" arrows="1" fold="1" page="1" pageScale="1" pageWidth="827" pageHeight="1169" math="0" shadow="0">
      <root>
        <mxCell id="o9i_BpebNKQVFLbcYuT6-0" />
        <mxCell id="o9i_BpebNKQVFLbcYuT6-1" parent="o9i_BpebNKQVFLbcYuT6-0" />
        <mxCell id="jM7TTQUF3KDPgawycMoC-5" value="" style="edgeStyle=orthogonalEdgeStyle;rounded=0;orthogonalLoop=1;jettySize=auto;html=1;" edge="1" parent="o9i_BpebNKQVFLbcYuT6-1" source="mfj9_3gTwRDB2nDZH38S-2" target="mfj9_3gTwRDB2nDZH38S-13">
          <mxGeometry relative="1" as="geometry" />
        </mxCell>
        <mxCell id="mfj9_3gTwRDB2nDZH38S-2" value="The front-end send the information to the back-end" style="text;html=1;align=center;verticalAlign=middle;resizable=0;points=[];autosize=1;" parent="o9i_BpebNKQVFLbcYuT6-1" vertex="1">
          <mxGeometry x="90" y="-1425" width="290" height="20" as="geometry" />
        </mxCell>
        <object placeholders="1" c4Type="Database" c4Technology="Technology" c4Description="Local Database" label="%c4Type%&lt;div&gt;[Container:&amp;nbsp;%c4Technology%]&lt;/div&gt;&lt;br&gt;&lt;div&gt;%c4Description%&lt;/div&gt;" id="mfj9_3gTwRDB2nDZH38S-3">
          <mxCell style="shape=cylinder;whiteSpace=wrap;html=1;boundedLbl=1;rounded=0;labelBackgroundColor=none;fillColor=#438DD5;fontSize=12;fontColor=#ffffff;align=center;strokeColor=#3C7FC0;metaEdit=1;points=[[0.5,0,0],[1,0.25,0],[1,0.5,0],[1,0.75,0],[0.5,1,0],[0,0.75,0],[0,0.5,0],[0,0.25,0]];metaData={&quot;c4Type&quot;:{&quot;editable&quot;:false}};" parent="o9i_BpebNKQVFLbcYuT6-1" vertex="1">
            <mxGeometry x="980" y="-1485" width="160" height="140" as="geometry" />
          </mxCell>
        </object>
        <object placeholders="1" c4Name="Channel API" c4Type="Software System" c4Description="The API of existing messenger platforms" label="&lt;b&gt;%c4Name%&lt;/b&gt;&lt;div&gt;[%c4Type%]&lt;/div&gt;&lt;br&gt;&lt;div&gt;%c4Description%&lt;/div&gt;" id="mfj9_3gTwRDB2nDZH38S-4">
          <mxCell style="rounded=1;whiteSpace=wrap;html=1;labelBackgroundColor=none;fillColor=#1168BD;fontColor=#ffffff;align=center;arcSize=10;strokeColor=#1168BD;metaEdit=1;metaData={&quot;c4Type&quot;:{&quot;editable&quot;:false}};points=[[0.25,0,0],[0.5,0,0],[0.75,0,0],[1,0.25,0],[1,0.5,0],[1,0.75,0],[0.75,1,0],[0.5,1,0],[0.25,1,0],[0,0.75,0],[0,0.5,0],[0,0.25,0]];" parent="o9i_BpebNKQVFLbcYuT6-1" vertex="1">
            <mxGeometry x="505" y="-1240" width="160" height="100" as="geometry" />
          </mxCell>
        </object>
        <mxCell id="mfj9_3gTwRDB2nDZH38S-5" value="" style="endArrow=classic;startArrow=classic;html=1;entryX=0.5;entryY=0;entryDx=0;entryDy=0;entryPerimeter=0;exitX=0.5;exitY=1;exitDx=0;exitDy=0;" parent="o9i_BpebNKQVFLbcYuT6-1" source="mfj9_3gTwRDB2nDZH38S-10" target="mfj9_3gTwRDB2nDZH38S-4" edge="1">
          <mxGeometry width="50" height="50" relative="1" as="geometry">
            <mxPoint x="590" y="-1370" as="sourcePoint" />
            <mxPoint x="680" y="-1440" as="targetPoint" />
          </mxGeometry>
        </mxCell>
        <mxCell id="mfj9_3gTwRDB2nDZH38S-6" value="" style="endArrow=classic;startArrow=classic;html=1;exitX=0;exitY=0.5;exitDx=0;exitDy=0;exitPerimeter=0;entryX=1;entryY=0.5;entryDx=0;entryDy=0;" parent="o9i_BpebNKQVFLbcYuT6-1" source="mfj9_3gTwRDB2nDZH38S-3" target="mfj9_3gTwRDB2nDZH38S-10" edge="1">
          <mxGeometry width="50" height="50" relative="1" as="geometry">
            <mxPoint x="630" y="-1390" as="sourcePoint" />
            <mxPoint x="650" y="-1435" as="targetPoint" />
          </mxGeometry>
        </mxCell>
        <mxCell id="mfj9_3gTwRDB2nDZH38S-8" value="Login Succesful/Failed" style="text;html=1;strokeColor=none;fillColor=none;align=center;verticalAlign=middle;whiteSpace=wrap;rounded=0;" parent="o9i_BpebNKQVFLbcYuT6-1" vertex="1">
          <mxGeometry x="190" y="-1400" width="130" height="20" as="geometry" />
        </mxCell>
        <mxCell id="mfj9_3gTwRDB2nDZH38S-9" value="Writes locally our login information" style="text;html=1;align=center;verticalAlign=middle;resizable=0;points=[];autosize=1;" parent="o9i_BpebNKQVFLbcYuT6-1" vertex="1">
          <mxGeometry x="770" y="-1400" width="200" height="20" as="geometry" />
        </mxCell>
        <mxCell id="mfj9_3gTwRDB2nDZH38S-10" value="" style="rounded=0;whiteSpace=wrap;html=1;" parent="o9i_BpebNKQVFLbcYuT6-1" vertex="1">
          <mxGeometry x="400" y="-1490" width="370" height="150" as="geometry" />
        </mxCell>
        <mxCell id="mfj9_3gTwRDB2nDZH38S-11" value="Call the API and receive a response" style="text;html=1;align=center;verticalAlign=middle;resizable=0;points=[];autosize=1;" parent="o9i_BpebNKQVFLbcYuT6-1" vertex="1">
          <mxGeometry x="370" y="-1300" width="210" height="20" as="geometry" />
        </mxCell>
        <mxCell id="mfj9_3gTwRDB2nDZH38S-12" style="edgeStyle=orthogonalEdgeStyle;rounded=0;orthogonalLoop=1;jettySize=auto;html=1;exitX=0.5;exitY=1;exitDx=0;exitDy=0;" parent="o9i_BpebNKQVFLbcYuT6-1" source="mfj9_3gTwRDB2nDZH38S-10" target="mfj9_3gTwRDB2nDZH38S-10" edge="1">
          <mxGeometry relative="1" as="geometry" />
        </mxCell>
        <object placeholders="1" c4Name="Listener" c4Type="Software System" c4Description="Using this module we will receive the messages" label="&lt;b&gt;%c4Name%&lt;/b&gt;&lt;div&gt;[%c4Type%]&lt;/div&gt;&lt;br&gt;&lt;div&gt;%c4Description%&lt;/div&gt;" id="mfj9_3gTwRDB2nDZH38S-13">
          <mxCell style="rounded=1;whiteSpace=wrap;html=1;labelBackgroundColor=none;fillColor=#1168BD;fontColor=#ffffff;align=center;arcSize=10;strokeColor=#1168BD;metaEdit=1;metaData={&quot;c4Type&quot;:{&quot;editable&quot;:false}};points=[[0.25,0,0],[0.5,0,0],[0.75,0,0],[1,0.25,0],[1,0.5,0],[1,0.75,0],[0.75,1,0],[0.5,1,0],[0.25,1,0],[0,0.75,0],[0,0.5,0],[0,0.25,0]];" parent="o9i_BpebNKQVFLbcYuT6-1" vertex="1">
            <mxGeometry x="420" y="-1470" width="160" height="110" as="geometry" />
          </mxCell>
        </object>
        <object placeholders="1" c4Name="API Local Verification" c4Type="Software System" c4Description="We manage the response from the 3rd API" label="&lt;b&gt;%c4Name%&lt;/b&gt;&lt;div&gt;[%c4Type%]&lt;/div&gt;&lt;br&gt;&lt;div&gt;%c4Description%&lt;/div&gt;" id="mfj9_3gTwRDB2nDZH38S-14">
          <mxCell style="rounded=1;whiteSpace=wrap;html=1;labelBackgroundColor=none;fillColor=#1168BD;fontColor=#ffffff;align=center;arcSize=10;strokeColor=#1168BD;metaEdit=1;metaData={&quot;c4Type&quot;:{&quot;editable&quot;:false}};points=[[0.25,0,0],[0.5,0,0],[0.75,0,0],[1,0.25,0],[1,0.5,0],[1,0.75,0],[0.75,1,0],[0.5,1,0],[0.25,1,0],[0,0.75,0],[0,0.5,0],[0,0.25,0]];" parent="o9i_BpebNKQVFLbcYuT6-1" vertex="1">
            <mxGeometry x="600" y="-1470" width="160" height="110.00000000000001" as="geometry" />
          </mxCell>
        </object>
        <mxCell id="mfj9_3gTwRDB2nDZH38S-15" value="&lt;font style=&quot;font-size: 23px&quot;&gt;C4 Diagram Login Module Backend&lt;br&gt;&lt;br&gt;&lt;/font&gt;" style="text;html=1;strokeColor=none;fillColor=none;align=center;verticalAlign=middle;whiteSpace=wrap;rounded=0;" parent="o9i_BpebNKQVFLbcYuT6-1" vertex="1">
          <mxGeometry x="505" y="-1800" width="240" height="20" as="geometry" />
        </mxCell>
        <object placeholders="1" c4Name="Login Verification System&#xa;" c4Type="Software System" c4Description="Login Verification System&#xa;Verify the credentials of a user" label="&lt;b&gt;%c4Name%&lt;/b&gt;&lt;div&gt;[%c4Type%]&lt;/div&gt;&lt;br&gt;&lt;div&gt;%c4Description%&lt;/div&gt;" id="mfj9_3gTwRDB2nDZH38S-18">
          <mxCell style="rounded=1;whiteSpace=wrap;html=1;labelBackgroundColor=none;fillColor=#1168BD;fontColor=#ffffff;align=center;arcSize=10;strokeColor=#1168BD;metaEdit=1;metaData={&quot;c4Type&quot;:{&quot;editable&quot;:false}};points=[[0.25,0,0],[0.5,0,0],[0.75,0,0],[1,0.25,0],[1,0.5,0],[1,0.75,0],[0.75,1,0],[0.5,1,0],[0.25,1,0],[0,0.75,0],[0,0.5,0],[0,0.25,0]];" parent="o9i_BpebNKQVFLbcYuT6-1" vertex="1">
            <mxGeometry x="500" y="-820" width="160" height="110.00000000000001" as="geometry" />
          </mxCell>
        </object>
        <mxCell id="NFeTCtPL6oImeVz8NYII-0" value="&lt;font style=&quot;font-size: 23px&quot;&gt;C4 Diagram Login Module FrontEnd&lt;br&gt;&lt;br&gt;&lt;/font&gt;" style="text;html=1;strokeColor=none;fillColor=none;align=center;verticalAlign=middle;whiteSpace=wrap;rounded=0;" parent="o9i_BpebNKQVFLbcYuT6-1" vertex="1">
          <mxGeometry x="470" y="-1040" width="240" height="20" as="geometry" />
        </mxCell>
        <object placeholders="1" c4Name="Log In Button " c4Type="Container" c4Technology="JAVA" c4Description="The log-in button: User needs to log in in the application." label="&lt;b&gt;%c4Name%&lt;/b&gt;&lt;div&gt;[%c4Type%: %c4Technology%]&lt;/div&gt;&lt;br&gt;&lt;div&gt;%c4Description%&lt;/div&gt;" id="V37fsZrMIBmLFvKWEId--0">
          <mxCell style="rounded=1;whiteSpace=wrap;html=1;labelBackgroundColor=none;fillColor=#438DD5;fontColor=#ffffff;align=center;arcSize=10;strokeColor=#3C7FC0;metaEdit=1;metaData={&quot;c4Type&quot;:{&quot;editable&quot;:false}};points=[[0.25,0,0],[0.5,0,0],[0.75,0,0],[1,0.25,0],[1,0.5,0],[1,0.75,0],[0.75,1,0],[0.5,1,0],[0.25,1,0],[0,0.75,0],[0,0.5,0],[0,0.25,0]];" parent="o9i_BpebNKQVFLbcYuT6-1" vertex="1">
            <mxGeometry x="505" y="-1000" width="160" height="100" as="geometry" />
          </mxCell>
        </object>
        <mxCell id="V37fsZrMIBmLFvKWEId--3" value="" style="endArrow=classic;startArrow=classic;html=1;exitX=0.45;exitY=1.03;exitDx=0;exitDy=0;exitPerimeter=0;" parent="o9i_BpebNKQVFLbcYuT6-1" source="V37fsZrMIBmLFvKWEId--0" target="mfj9_3gTwRDB2nDZH38S-18" edge="1">
          <mxGeometry width="50" height="50" relative="1" as="geometry">
            <mxPoint x="620" y="-930" as="sourcePoint" />
            <mxPoint x="670" y="-980" as="targetPoint" />
          </mxGeometry>
        </mxCell>
        <mxCell id="V37fsZrMIBmLFvKWEId--4" value="Login Succesful/Failed" style="text;html=1;strokeColor=none;fillColor=none;align=center;verticalAlign=middle;whiteSpace=wrap;rounded=0;" parent="o9i_BpebNKQVFLbcYuT6-1" vertex="1">
          <mxGeometry x="580" y="-870" width="130" height="20" as="geometry" />
        </mxCell>
        <object placeholders="1" c4Name="User" c4Type="Person" c4Description="An user that freshly&#xa; opened the app" label="&lt;b&gt;%c4Name%&lt;/b&gt;&lt;div&gt;[%c4Type%]&lt;/div&gt;&lt;br&gt;&lt;div&gt;%c4Description%&lt;/div&gt;" id="ytyJmYb3KqyjJYJnErVl-0">
          <mxCell style="html=1;dashed=0;whitespace=wrap;fillColor=#08427b;strokeColor=none;fontColor=#ffffff;shape=mxgraph.c4.person;align=center;metaEdit=1;points=[[0.5,0,0],[1,0.5,0],[1,0.75,0],[0.75,1,0],[0.5,1,0],[0.25,1,0],[0,0.75,0],[0,0.5,0]];metaData={&quot;c4Type&quot;:{&quot;editable&quot;:false}};" vertex="1" parent="o9i_BpebNKQVFLbcYuT6-1">
            <mxGeometry x="570" y="-1760" width="110.00000000000001" height="140" as="geometry" />
          </mxCell>
        </object>
        <object placeholders="1" c4Name="Aplication UI" c4Type="Software System" c4Description="Description" label="&lt;b&gt;%c4Name%&lt;/b&gt;&lt;div&gt;[%c4Type%]&lt;/div&gt;&lt;br&gt;&lt;div&gt;%c4Description%&lt;/div&gt;" id="jM7TTQUF3KDPgawycMoC-4">
          <mxCell style="rounded=1;whiteSpace=wrap;html=1;labelBackgroundColor=none;fillColor=#1168BD;fontColor=#ffffff;align=center;arcSize=10;strokeColor=#1168BD;metaEdit=1;metaData={&quot;c4Type&quot;:{&quot;editable&quot;:false}};points=[[0.25,0,0],[0.5,0,0],[0.75,0,0],[1,0.25,0],[1,0.5,0],[1,0.75,0],[0.75,1,0],[0.5,1,0],[0.25,1,0],[0,0.75,0],[0,0.5,0],[0,0.25,0]];" vertex="1" parent="o9i_BpebNKQVFLbcYuT6-1">
            <mxGeometry x="700" y="-1570" width="160" height="110.00000000000001" as="geometry" />
          </mxCell>
        </object>
        <mxCell id="jM7TTQUF3KDPgawycMoC-6" value="" style="endArrow=classic;html=1;entryX=0.5;entryY=0;entryDx=0;entryDy=0;entryPerimeter=0;" edge="1" parent="o9i_BpebNKQVFLbcYuT6-1" target="jM7TTQUF3KDPgawycMoC-4">
          <mxGeometry width="50" height="50" relative="1" as="geometry">
            <mxPoint x="630" y="-1620" as="sourcePoint" />
            <mxPoint x="680" y="-1550" as="targetPoint" />
          </mxGeometry>
        </mxCell>
        <mxCell id="jM7TTQUF3KDPgawycMoC-7" value="Interacts with" style="edgeLabel;html=1;align=center;verticalAlign=middle;resizable=0;points=[];" vertex="1" connectable="0" parent="jM7TTQUF3KDPgawycMoC-6">
          <mxGeometry x="0.3384" relative="1" as="geometry">
            <mxPoint y="-1" as="offset" />
          </mxGeometry>
        </mxCell>
      </root>
    </mxGraphModel>
  </diagram>
  <diagram name="Select Channel Module" id="QWqTEnkOtP9ACVPwiv00">
    <mxGraphModel dx="1038" dy="2886" grid="1" gridSize="10" guides="1" tooltips="1" connect="1" arrows="1" fold="1" page="1" pageScale="1" pageWidth="827" pageHeight="1169" math="0" shadow="0">
      <root>
        <mxCell id="mQUH3nDY8lA-0CQJi3Wt-0" />
        <mxCell id="mQUH3nDY8lA-0CQJi3Wt-1" parent="mQUH3nDY8lA-0CQJi3Wt-0" />
        <object placeholders="1" c4Name="Client" c4Type="Person" c4Description="The person that will use our app&#xa;" label="&lt;b&gt;%c4Name%&lt;/b&gt;&lt;div&gt;[%c4Type%]&lt;/div&gt;&lt;br&gt;&lt;div&gt;%c4Description%&lt;/div&gt;" id="FnzFOdDF_Y4rKR_L5Dfv-0">
          <mxCell style="html=1;dashed=0;whitespace=wrap;fillColor=#08427b;strokeColor=none;fontColor=#ffffff;shape=mxgraph.c4.person;align=center;metaEdit=1;points=[[0.5,0,0],[1,0.5,0],[1,0.75,0],[0.75,1,0],[0.5,1,0],[0.25,1,0],[0,0.75,0],[0,0.5,0]];metaData={&quot;c4Type&quot;:{&quot;editable&quot;:false}};" parent="mQUH3nDY8lA-0CQJi3Wt-1" vertex="1">
            <mxGeometry x="255" y="-1320" width="190" height="170" as="geometry" />
          </mxCell>
        </object>
        <mxCell id="FnzFOdDF_Y4rKR_L5Dfv-1" value="" style="endArrow=classic;html=1;exitX=0.5;exitY=1;exitDx=0;exitDy=0;exitPerimeter=0;entryX=0.5;entryY=0;entryDx=0;entryDy=0;" parent="mQUH3nDY8lA-0CQJi3Wt-1" source="FnzFOdDF_Y4rKR_L5Dfv-0" target="FnzFOdDF_Y4rKR_L5Dfv-2" edge="1">
          <mxGeometry width="50" height="50" relative="1" as="geometry">
            <mxPoint x="650" y="-760" as="sourcePoint" />
            <mxPoint x="345" y="-1080" as="targetPoint" />
          </mxGeometry>
        </mxCell>
        <mxCell id="FnzFOdDF_Y4rKR_L5Dfv-2" value="" style="rounded=0;whiteSpace=wrap;html=1;" parent="mQUH3nDY8lA-0CQJi3Wt-1" vertex="1">
          <mxGeometry x="40" y="-1075" width="620" height="225" as="geometry" />
        </mxCell>
        <object placeholders="1" c4Name="Add Channel" c4Type="Software System" c4Description="Using this button we can add new channels" label="&lt;b&gt;%c4Name%&lt;/b&gt;&lt;div&gt;[%c4Type%]&lt;/div&gt;&lt;br&gt;&lt;div&gt;%c4Description%&lt;/div&gt;" id="FnzFOdDF_Y4rKR_L5Dfv-3">
          <mxCell style="rounded=1;whiteSpace=wrap;html=1;labelBackgroundColor=none;fillColor=#1168BD;fontColor=#ffffff;align=center;arcSize=10;strokeColor=#1168BD;metaEdit=1;metaData={&quot;c4Type&quot;:{&quot;editable&quot;:false}};points=[[0.25,0,0],[0.5,0,0],[0.75,0,0],[1,0.25,0],[1,0.5,0],[1,0.75,0],[0.75,1,0],[0.5,1,0],[0.25,1,0],[0,0.75,0],[0,0.5,0],[0,0.25,0]];" parent="mQUH3nDY8lA-0CQJi3Wt-1" vertex="1">
            <mxGeometry x="70" y="-1030" width="160" height="110.00000000000001" as="geometry" />
          </mxCell>
        </object>
        <object placeholders="1" c4Name="Delete Channel" c4Type="Software System" c4Description="Description" label="&lt;b&gt;%c4Name%&lt;/b&gt;&lt;div&gt;[%c4Type%]&lt;/div&gt;&lt;br&gt;&lt;div&gt;%c4Description%&lt;/div&gt;" id="FnzFOdDF_Y4rKR_L5Dfv-4">
          <mxCell style="rounded=1;whiteSpace=wrap;html=1;labelBackgroundColor=none;fillColor=#1168BD;fontColor=#ffffff;align=center;arcSize=10;strokeColor=#1168BD;metaEdit=1;metaData={&quot;c4Type&quot;:{&quot;editable&quot;:false}};points=[[0.25,0,0],[0.5,0,0],[0.75,0,0],[1,0.25,0],[1,0.5,0],[1,0.75,0],[0.75,1,0],[0.5,1,0],[0.25,1,0],[0,0.75,0],[0,0.5,0],[0,0.25,0]];" parent="mQUH3nDY8lA-0CQJi3Wt-1" vertex="1">
            <mxGeometry x="260" y="-1030" width="160" height="110.00000000000001" as="geometry" />
          </mxCell>
        </object>
        <mxCell id="FnzFOdDF_Y4rKR_L5Dfv-5" value="Principal Board" style="text;html=1;strokeColor=none;fillColor=none;align=center;verticalAlign=middle;whiteSpace=wrap;rounded=0;" parent="mQUH3nDY8lA-0CQJi3Wt-1" vertex="1">
          <mxGeometry x="20" y="-870" width="130" height="20" as="geometry" />
        </mxCell>
        <object placeholders="1" c4Name="Select Channel" c4Type="Software System" c4Description="Using this button we will select an existing channel" label="&lt;b&gt;%c4Name%&lt;/b&gt;&lt;div&gt;[%c4Type%]&lt;/div&gt;&lt;br&gt;&lt;div&gt;%c4Description%&lt;/div&gt;" id="FnzFOdDF_Y4rKR_L5Dfv-6">
          <mxCell style="rounded=1;whiteSpace=wrap;html=1;labelBackgroundColor=none;fillColor=#1168BD;fontColor=#ffffff;align=center;arcSize=10;strokeColor=#1168BD;metaEdit=1;metaData={&quot;c4Type&quot;:{&quot;editable&quot;:false}};points=[[0.25,0,0],[0.5,0,0],[0.75,0,0],[1,0.25,0],[1,0.5,0],[1,0.75,0],[0.75,1,0],[0.5,1,0],[0.25,1,0],[0,0.75,0],[0,0.5,0],[0,0.25,0]];" parent="mQUH3nDY8lA-0CQJi3Wt-1" vertex="1">
            <mxGeometry x="460" y="-1030" width="180" height="110" as="geometry" />
          </mxCell>
        </object>
        <mxCell id="FnzFOdDF_Y4rKR_L5Dfv-7" style="edgeStyle=orthogonalEdgeStyle;rounded=0;orthogonalLoop=1;jettySize=auto;html=1;exitX=0.5;exitY=1;exitDx=0;exitDy=0;" parent="mQUH3nDY8lA-0CQJi3Wt-1" source="FnzFOdDF_Y4rKR_L5Dfv-2" target="FnzFOdDF_Y4rKR_L5Dfv-2" edge="1">
          <mxGeometry relative="1" as="geometry" />
        </mxCell>
        <mxCell id="FnzFOdDF_Y4rKR_L5Dfv-8" style="edgeStyle=orthogonalEdgeStyle;rounded=0;orthogonalLoop=1;jettySize=auto;html=1;exitX=0.5;exitY=1;exitDx=0;exitDy=0;" parent="mQUH3nDY8lA-0CQJi3Wt-1" source="FnzFOdDF_Y4rKR_L5Dfv-2" target="FnzFOdDF_Y4rKR_L5Dfv-2" edge="1">
          <mxGeometry relative="1" as="geometry" />
        </mxCell>
        <mxCell id="FnzFOdDF_Y4rKR_L5Dfv-9" style="edgeStyle=orthogonalEdgeStyle;rounded=0;orthogonalLoop=1;jettySize=auto;html=1;exitX=0.5;exitY=1;exitDx=0;exitDy=0;" parent="mQUH3nDY8lA-0CQJi3Wt-1" source="FnzFOdDF_Y4rKR_L5Dfv-2" target="FnzFOdDF_Y4rKR_L5Dfv-2" edge="1">
          <mxGeometry relative="1" as="geometry" />
        </mxCell>
        <object placeholders="1" c4Name="API Service" c4Type="Software System" c4Description="The existing messenger API" label="&lt;b&gt;%c4Name%&lt;/b&gt;&lt;div&gt;[%c4Type%]&lt;/div&gt;&lt;br&gt;&lt;div&gt;%c4Description%&lt;/div&gt;" id="FnzFOdDF_Y4rKR_L5Dfv-10">
          <mxCell style="rounded=1;whiteSpace=wrap;html=1;labelBackgroundColor=none;fillColor=#999999;fontColor=#ffffff;align=center;arcSize=10;strokeColor=#8A8A8A;metaEdit=1;metaData={&quot;c4Type&quot;:{&quot;editable&quot;:false}};points=[[0.25,0,0],[0.5,0,0],[0.75,0,0],[1,0.25,0],[1,0.5,0],[1,0.75,0],[0.75,1,0],[0.5,1,0],[0.25,1,0],[0,0.75,0],[0,0.5,0],[0,0.25,0]];" parent="mQUH3nDY8lA-0CQJi3Wt-1" vertex="1">
            <mxGeometry x="270" y="-790" width="160" height="110.00000000000001" as="geometry" />
          </mxCell>
        </object>
        <mxCell id="FnzFOdDF_Y4rKR_L5Dfv-11" value="" style="endArrow=classic;startArrow=classic;html=1;exitX=0.5;exitY=1;exitDx=0;exitDy=0;entryX=0.5;entryY=0;entryDx=0;entryDy=0;entryPerimeter=0;" parent="mQUH3nDY8lA-0CQJi3Wt-1" source="FnzFOdDF_Y4rKR_L5Dfv-2" target="FnzFOdDF_Y4rKR_L5Dfv-10" edge="1">
          <mxGeometry width="50" height="50" relative="1" as="geometry">
            <mxPoint x="350" y="-900" as="sourcePoint" />
            <mxPoint x="400" y="-950" as="targetPoint" />
          </mxGeometry>
        </mxCell>
        <object placeholders="1" c4Name="Select Channel Button " c4Type="Container" c4Technology="JAVA" c4Description="The Select Channel button that will let the costumer choose the messaging platform" label="&lt;b&gt;%c4Name%&lt;/b&gt;&lt;div&gt;[%c4Type%: %c4Technology%]&lt;/div&gt;&lt;br&gt;&lt;div&gt;%c4Description%&lt;/div&gt;" id="u-zlIi6k5A0aTZN8uA1E-0">
          <mxCell style="rounded=1;whiteSpace=wrap;html=1;labelBackgroundColor=none;fillColor=#438DD5;fontColor=#ffffff;align=center;arcSize=10;strokeColor=#3C7FC0;metaEdit=1;metaData={&quot;c4Type&quot;:{&quot;editable&quot;:false}};points=[[0.25,0,0],[0.5,0,0],[0.75,0,0],[1,0.25,0],[1,0.5,0],[1,0.75,0],[0.75,1,0],[0.5,1,0],[0.25,1,0],[0,0.75,0],[0,0.5,0],[0,0.25,0]];" parent="mQUH3nDY8lA-0CQJi3Wt-1" vertex="1">
            <mxGeometry x="300" y="-2000" width="160" height="100" as="geometry" />
          </mxCell>
        </object>
        <mxCell id="u-zlIi6k5A0aTZN8uA1E-1" value="" style="endArrow=classic;html=1;exitX=0.444;exitY=1.01;exitDx=0;exitDy=0;exitPerimeter=0;entryX=0.5;entryY=0;entryDx=0;entryDy=0;entryPerimeter=0;" parent="mQUH3nDY8lA-0CQJi3Wt-1" source="u-zlIi6k5A0aTZN8uA1E-0" edge="1">
          <mxGeometry width="50" height="50" relative="1" as="geometry">
            <mxPoint x="410" y="-1710" as="sourcePoint" />
            <mxPoint x="370" y="-1810" as="targetPoint" />
          </mxGeometry>
        </mxCell>
        <mxCell id="u-zlIi6k5A0aTZN8uA1E-2" value="The front-end send the information to the back-end" style="text;html=1;align=center;verticalAlign=middle;resizable=0;points=[];autosize=1;" parent="mQUH3nDY8lA-0CQJi3Wt-1" vertex="1">
          <mxGeometry x="80" y="-1870" width="290" height="20" as="geometry" />
        </mxCell>
        <object placeholders="1" c4Name="3rd API" c4Type="Software System" c4Description="The API of existing messenger platforms that will send us back the contact list " label="&lt;b&gt;%c4Name%&lt;/b&gt;&lt;div&gt;[%c4Type%]&lt;/div&gt;&lt;br&gt;&lt;div&gt;%c4Description%&lt;/div&gt;" id="u-zlIi6k5A0aTZN8uA1E-3">
          <mxCell style="rounded=1;whiteSpace=wrap;html=1;labelBackgroundColor=none;fillColor=#1168BD;fontColor=#ffffff;align=center;arcSize=10;strokeColor=#1168BD;metaEdit=1;metaData={&quot;c4Type&quot;:{&quot;editable&quot;:false}};points=[[0.25,0,0],[0.5,0,0],[0.75,0,0],[1,0.25,0],[1,0.5,0],[1,0.75,0],[0.75,1,0],[0.5,1,0],[0.25,1,0],[0,0.75,0],[0,0.5,0],[0,0.25,0]];" parent="mQUH3nDY8lA-0CQJi3Wt-1" vertex="1">
            <mxGeometry x="280" y="-1550" width="160" height="100" as="geometry" />
          </mxCell>
        </object>
        <mxCell id="u-zlIi6k5A0aTZN8uA1E-4" value="" style="endArrow=classic;startArrow=classic;html=1;exitX=0.5;exitY=0;exitDx=0;exitDy=0;exitPerimeter=0;entryX=0.438;entryY=0.99;entryDx=0;entryDy=0;entryPerimeter=0;" parent="mQUH3nDY8lA-0CQJi3Wt-1" target="u-zlIi6k5A0aTZN8uA1E-0" edge="1">
          <mxGeometry width="50" height="50" relative="1" as="geometry">
            <mxPoint x="370" y="-1810" as="sourcePoint" />
            <mxPoint x="460" y="-1760" as="targetPoint" />
          </mxGeometry>
        </mxCell>
        <mxCell id="u-zlIi6k5A0aTZN8uA1E-5" value="Call the API and receive a response" style="text;html=1;align=center;verticalAlign=middle;resizable=0;points=[];autosize=1;" parent="mQUH3nDY8lA-0CQJi3Wt-1" vertex="1">
          <mxGeometry x="190" y="-1620" width="210" height="20" as="geometry" />
        </mxCell>
        <mxCell id="u-zlIi6k5A0aTZN8uA1E-6" value="The back-end will send the contact list back&lt;br&gt;" style="text;html=1;align=center;verticalAlign=middle;resizable=0;points=[];autosize=1;" parent="mQUH3nDY8lA-0CQJi3Wt-1" vertex="1">
          <mxGeometry x="370" y="-1870" width="250" height="20" as="geometry" />
        </mxCell>
        <mxCell id="u-zlIi6k5A0aTZN8uA1E-7" value="" style="rounded=1;whiteSpace=wrap;html=1;" parent="mQUH3nDY8lA-0CQJi3Wt-1" vertex="1">
          <mxGeometry x="160" y="-1810" width="400" height="150" as="geometry" />
        </mxCell>
        <object placeholders="1" c4Name="Filtering" c4Type="Software System" c4Description="We will filter the information we got back from API" label="&lt;b&gt;%c4Name%&lt;/b&gt;&lt;div&gt;[%c4Type%]&lt;/div&gt;&lt;br&gt;&lt;div&gt;%c4Description%&lt;/div&gt;" id="u-zlIi6k5A0aTZN8uA1E-8">
          <mxCell style="rounded=1;whiteSpace=wrap;html=1;labelBackgroundColor=none;fillColor=#1168BD;fontColor=#ffffff;align=center;arcSize=10;strokeColor=#1168BD;metaEdit=1;metaData={&quot;c4Type&quot;:{&quot;editable&quot;:false}};points=[[0.25,0,0],[0.5,0,0],[0.75,0,0],[1,0.25,0],[1,0.5,0],[1,0.75,0],[0.75,1,0],[0.5,1,0],[0.25,1,0],[0,0.75,0],[0,0.5,0],[0,0.25,0]];" parent="mQUH3nDY8lA-0CQJi3Wt-1" vertex="1">
            <mxGeometry x="190" y="-1790" width="160" height="110.00000000000001" as="geometry" />
          </mxCell>
        </object>
        <object placeholders="1" c4Name="API Request" c4Type="Software System" c4Description="We send a request to the API in seach of the contact list" label="&lt;b&gt;%c4Name%&lt;/b&gt;&lt;div&gt;[%c4Type%]&lt;/div&gt;&lt;br&gt;&lt;div&gt;%c4Description%&lt;/div&gt;" id="u-zlIi6k5A0aTZN8uA1E-9">
          <mxCell style="rounded=0;whiteSpace=wrap;html=1;labelBackgroundColor=none;fillColor=#1168BD;fontColor=#ffffff;align=center;arcSize=10;strokeColor=#1168BD;metaEdit=1;metaData={&quot;c4Type&quot;:{&quot;editable&quot;:false}};points=[[0.25,0,0],[0.5,0,0],[0.75,0,0],[1,0.25,0],[1,0.5,0],[1,0.75,0],[0.75,1,0],[0.5,1,0],[0.25,1,0],[0,0.75,0],[0,0.5,0],[0,0.25,0]];" parent="mQUH3nDY8lA-0CQJi3Wt-1" vertex="1">
            <mxGeometry x="390" y="-1790" width="160" height="110.00000000000001" as="geometry" />
          </mxCell>
        </object>
        <mxCell id="u-zlIi6k5A0aTZN8uA1E-10" value="" style="endArrow=classic;startArrow=classic;html=1;entryX=0.5;entryY=0;entryDx=0;entryDy=0;entryPerimeter=0;exitX=0.5;exitY=1;exitDx=0;exitDy=0;exitPerimeter=0;" parent="mQUH3nDY8lA-0CQJi3Wt-1" source="u-zlIi6k5A0aTZN8uA1E-9" target="u-zlIi6k5A0aTZN8uA1E-3" edge="1">
          <mxGeometry width="50" height="50" relative="1" as="geometry">
            <mxPoint x="370" y="-1700" as="sourcePoint" />
            <mxPoint x="460" y="-1760" as="targetPoint" />
          </mxGeometry>
        </mxCell>
        <mxCell id="u-zlIi6k5A0aTZN8uA1E-11" value="" style="endArrow=classic;html=1;exitX=0;exitY=0.5;exitDx=0;exitDy=0;exitPerimeter=0;entryX=1;entryY=0.5;entryDx=0;entryDy=0;entryPerimeter=0;" parent="mQUH3nDY8lA-0CQJi3Wt-1" source="u-zlIi6k5A0aTZN8uA1E-9" target="u-zlIi6k5A0aTZN8uA1E-8" edge="1">
          <mxGeometry width="50" height="50" relative="1" as="geometry">
            <mxPoint x="410" y="-1660" as="sourcePoint" />
            <mxPoint x="460" y="-1710" as="targetPoint" />
          </mxGeometry>
        </mxCell>
        <mxCell id="qSaMrAcnF_n6ooPkf43Y-0" value="&lt;font style=&quot;font-size: 23px&quot;&gt;C4 Diagram Selection Module Backend&lt;/font&gt;" style="text;html=1;strokeColor=none;fillColor=none;align=center;verticalAlign=middle;whiteSpace=wrap;rounded=0;" parent="mQUH3nDY8lA-0CQJi3Wt-1" vertex="1">
          <mxGeometry x="210" y="-2050" width="340" height="20" as="geometry" />
        </mxCell>
        <mxCell id="wI8w5GmFMU5EdbHrGvh7-0" value="&lt;font style=&quot;font-size: 23px&quot;&gt;C4 Diagram Selection Module FrontEnd&lt;/font&gt;" style="text;html=1;strokeColor=none;fillColor=none;align=center;verticalAlign=middle;whiteSpace=wrap;rounded=0;" parent="mQUH3nDY8lA-0CQJi3Wt-1" vertex="1">
          <mxGeometry x="180" y="-1360" width="340" height="20" as="geometry" />
        </mxCell>
      </root>
    </mxGraphModel>
  </diagram>
  <diagram name="Send Message Module" id="Guk4AuIiQkaXeEMAA8VQ">
    <mxGraphModel dx="1865" dy="548" grid="1" gridSize="10" guides="1" tooltips="1" connect="1" arrows="1" fold="1" page="1" pageScale="1" pageWidth="827" pageHeight="1169" math="0" shadow="0">
      <root>
        <mxCell id="QX4rX3mfWf0FfhNPfQnd-0" />
        <mxCell id="QX4rX3mfWf0FfhNPfQnd-1" parent="QX4rX3mfWf0FfhNPfQnd-0" />
        <object placeholders="1" c4Name="User" c4Type="Person" c4Description="User that selected a contact &#xa;from the list of contacts" label="&lt;b&gt;%c4Name%&lt;/b&gt;&lt;div&gt;[%c4Type%]&lt;/div&gt;&lt;br&gt;&lt;div&gt;%c4Description%&lt;/div&gt;" id="6R8gSCNAFCSRrQYCPY57-0">
          <mxCell style="html=1;dashed=0;whitespace=wrap;fillColor=#08427b;strokeColor=none;fontColor=#ffffff;shape=mxgraph.c4.person;align=center;metaEdit=1;points=[[0.5,0,0],[1,0.5,0],[1,0.75,0],[0.75,1,0],[0.5,1,0],[0.25,1,0],[0,0.75,0],[0,0.5,0]];metaData={&quot;c4Type&quot;:{&quot;editable&quot;:false}};" parent="QX4rX3mfWf0FfhNPfQnd-1" vertex="1">
            <mxGeometry x="440" y="110" width="160" height="180" as="geometry" />
          </mxCell>
        </object>
        <mxCell id="6R8gSCNAFCSRrQYCPY57-1" value="" style="endArrow=classic;html=1;entryX=0.5;entryY=0;entryDx=0;entryDy=0;entryPerimeter=0;exitX=0.5;exitY=1;exitDx=0;exitDy=0;exitPerimeter=0;" parent="QX4rX3mfWf0FfhNPfQnd-1" source="6R8gSCNAFCSRrQYCPY57-0" target="6R8gSCNAFCSRrQYCPY57-3" edge="1">
          <mxGeometry width="50" height="50" relative="1" as="geometry">
            <mxPoint x="430" y="300" as="sourcePoint" />
            <mxPoint x="520" y="350" as="targetPoint" />
          </mxGeometry>
        </mxCell>
        <mxCell id="6R8gSCNAFCSRrQYCPY57-2" value="Interacts with" style="edgeLabel;html=1;align=center;verticalAlign=middle;resizable=0;points=[];" parent="6R8gSCNAFCSRrQYCPY57-1" vertex="1" connectable="0">
          <mxGeometry x="0.28" y="-2" relative="1" as="geometry">
            <mxPoint as="offset" />
          </mxGeometry>
        </mxCell>
        <object placeholders="1" c4Name="Aplication UI" c4Type="Container" c4Technology="Java" c4Description="Shows all the messages of the current selected contact and provides communication functionalities" label="&lt;b&gt;%c4Name%&lt;/b&gt;&lt;div&gt;[%c4Type%: %c4Technology%]&lt;/div&gt;&lt;br&gt;&lt;div&gt;%c4Description%&lt;/div&gt;" id="6R8gSCNAFCSRrQYCPY57-3">
          <mxCell style="rounded=1;whiteSpace=wrap;html=1;labelBackgroundColor=none;fillColor=#438DD5;fontColor=#ffffff;align=center;arcSize=10;strokeColor=#3C7FC0;metaEdit=1;metaData={&quot;c4Type&quot;:{&quot;editable&quot;:false}};points=[[0.25,0,0],[0.5,0,0],[0.75,0,0],[1,0.25,0],[1,0.5,0],[1,0.75,0],[0.75,1,0],[0.5,1,0],[0.25,1,0],[0,0.75,0],[0,0.5,0],[0,0.25,0]];" parent="QX4rX3mfWf0FfhNPfQnd-1" vertex="1">
            <mxGeometry x="440" y="360" width="160" height="110.00000000000001" as="geometry" />
          </mxCell>
        </object>
        <object placeholders="1" c4Name="Aplication API" c4Type="ExecutionEnvironment" c4Application="v1.0" label="&lt;div style=&quot;text-align: left&quot;&gt;%c4Name%&lt;/div&gt;&lt;div style=&quot;text-align: left&quot;&gt;[%c4Application%]&lt;/div&gt;" id="6R8gSCNAFCSRrQYCPY57-4">
          <mxCell style="rounded=1;whiteSpace=wrap;html=1;labelBackgroundColor=none;fillColor=#ffffff;fontColor=#000000;align=left;arcSize=5;strokeColor=#000000;verticalAlign=bottom;metaEdit=1;metaData={&quot;c4Type&quot;:{&quot;editable&quot;:false}};points=[[0.25,0,0],[0.5,0,0],[0.75,0,0],[1,0.25,0],[1,0.5,0],[1,0.75,0],[0.75,1,0],[0.5,1,0],[0.25,1,0],[0,0.75,0],[0,0.5,0],[0,0.25,0]];" parent="QX4rX3mfWf0FfhNPfQnd-1" vertex="1">
            <mxGeometry x="150" y="555" width="570" height="180" as="geometry" />
          </mxCell>
        </object>
        <mxCell id="6R8gSCNAFCSRrQYCPY57-5" value="" style="endArrow=classic;html=1;entryX=0.5;entryY=0;entryDx=0;entryDy=0;entryPerimeter=0;exitX=0.25;exitY=1;exitDx=0;exitDy=0;exitPerimeter=0;" parent="QX4rX3mfWf0FfhNPfQnd-1" source="6R8gSCNAFCSRrQYCPY57-3" target="EmnsGkhcUmimmquGP0d--0" edge="1">
          <mxGeometry width="50" height="50" relative="1" as="geometry">
            <mxPoint x="530" y="280" as="sourcePoint" />
            <mxPoint x="250" y="575" as="targetPoint" />
          </mxGeometry>
        </mxCell>
        <mxCell id="6R8gSCNAFCSRrQYCPY57-6" value="Makes API calls to&amp;nbsp;" style="edgeLabel;html=1;align=center;verticalAlign=middle;resizable=0;points=[];" parent="6R8gSCNAFCSRrQYCPY57-5" vertex="1" connectable="0">
          <mxGeometry x="0.28" y="-2" relative="1" as="geometry">
            <mxPoint x="27.910000000000004" y="-18.52" as="offset" />
          </mxGeometry>
        </mxCell>
        <mxCell id="ohcIhqdVafqrEyvv1l_J-3" value="" style="endArrow=classic;html=1;entryX=0.5;entryY=0;entryDx=0;entryDy=0;entryPerimeter=0;exitX=0.5;exitY=1;exitDx=0;exitDy=0;exitPerimeter=0;" parent="QX4rX3mfWf0FfhNPfQnd-1" source="6R8gSCNAFCSRrQYCPY57-3" target="EmnsGkhcUmimmquGP0d--1" edge="1">
          <mxGeometry width="50" height="50" relative="1" as="geometry">
            <mxPoint x="490" y="450" as="sourcePoint" />
            <mxPoint x="420" y="575" as="targetPoint" />
          </mxGeometry>
        </mxCell>
        <mxCell id="ohcIhqdVafqrEyvv1l_J-4" value="Makes API calls to&amp;nbsp;" style="edgeLabel;html=1;align=center;verticalAlign=middle;resizable=0;points=[];" parent="ohcIhqdVafqrEyvv1l_J-3" vertex="1" connectable="0">
          <mxGeometry x="0.28" y="-2" relative="1" as="geometry">
            <mxPoint x="38.85" y="-24.25" as="offset" />
          </mxGeometry>
        </mxCell>
        <mxCell id="ohcIhqdVafqrEyvv1l_J-6" value="" style="endArrow=classic;html=1;entryX=0.5;entryY=0;entryDx=0;entryDy=0;entryPerimeter=0;exitX=0.75;exitY=1;exitDx=0;exitDy=0;exitPerimeter=0;" parent="QX4rX3mfWf0FfhNPfQnd-1" source="6R8gSCNAFCSRrQYCPY57-3" target="EmnsGkhcUmimmquGP0d--2" edge="1">
          <mxGeometry width="50" height="50" relative="1" as="geometry">
            <mxPoint x="530" y="450" as="sourcePoint" />
            <mxPoint x="610" y="575" as="targetPoint" />
          </mxGeometry>
        </mxCell>
        <mxCell id="ohcIhqdVafqrEyvv1l_J-7" value="Makes API calls to&amp;nbsp;" style="edgeLabel;html=1;align=center;verticalAlign=middle;resizable=0;points=[];" parent="ohcIhqdVafqrEyvv1l_J-6" vertex="1" connectable="0">
          <mxGeometry x="0.28" y="-2" relative="1" as="geometry">
            <mxPoint x="9.66" y="-15.92" as="offset" />
          </mxGeometry>
        </mxCell>
        <object placeholders="1" c4Name="Channel API" c4Type="Software System" c4Description="The internal API of the current channel" label="&lt;b&gt;%c4Name%&lt;/b&gt;&lt;div&gt;[%c4Type%]&lt;/div&gt;&lt;br&gt;&lt;div&gt;%c4Description%&lt;/div&gt;" id="ohcIhqdVafqrEyvv1l_J-8">
          <mxCell style="rounded=1;whiteSpace=wrap;html=1;labelBackgroundColor=none;fillColor=#999999;fontColor=#ffffff;align=center;arcSize=10;strokeColor=#8A8A8A;metaEdit=1;metaData={&quot;c4Type&quot;:{&quot;editable&quot;:false}};points=[[0.25,0,0],[0.5,0,0],[0.75,0,0],[1,0.25,0],[1,0.5,0],[1,0.75,0],[0.75,1,0],[0.5,1,0],[0.25,1,0],[0,0.75,0],[0,0.5,0],[0,0.25,0]];" parent="QX4rX3mfWf0FfhNPfQnd-1" vertex="1">
            <mxGeometry x="920" y="575" width="160" height="110.00000000000001" as="geometry" />
          </mxCell>
        </object>
        <mxCell id="KIyKfca_J-JseW51ahed-0" value="" style="endArrow=classic;html=1;entryX=0;entryY=0.5;entryDx=0;entryDy=0;entryPerimeter=0;exitX=1;exitY=0.5;exitDx=0;exitDy=0;exitPerimeter=0;" parent="QX4rX3mfWf0FfhNPfQnd-1" source="6R8gSCNAFCSRrQYCPY57-4" target="ohcIhqdVafqrEyvv1l_J-8" edge="1">
          <mxGeometry width="50" height="50" relative="1" as="geometry">
            <mxPoint x="530" y="710" as="sourcePoint" />
            <mxPoint x="440" y="780" as="targetPoint" />
            <Array as="points" />
          </mxGeometry>
        </mxCell>
        <mxCell id="KIyKfca_J-JseW51ahed-1" value="Makes API calls to" style="edgeLabel;html=1;align=center;verticalAlign=middle;resizable=0;points=[];" parent="KIyKfca_J-JseW51ahed-0" vertex="1" connectable="0">
          <mxGeometry x="0.28" y="-2" relative="1" as="geometry">
            <mxPoint x="-17.79" y="-2.4199999999999946" as="offset" />
          </mxGeometry>
        </mxCell>
        <object placeholders="1" c4Name="Get messages" c4Type="Component" c4Technology="Java" c4Description="This return all the messages between the current &#xa;user and contact" label="&lt;b&gt;%c4Name%&lt;/b&gt;&lt;div&gt;[%c4Type%: %c4Technology%]&lt;/div&gt;&lt;br&gt;&lt;div&gt;%c4Description%&lt;/div&gt;" id="EmnsGkhcUmimmquGP0d--0">
          <mxCell style="rounded=1;whiteSpace=wrap;html=1;labelBackgroundColor=none;fillColor=#85BBF0;fontColor=#ffffff;align=center;arcSize=10;strokeColor=#78A8D8;metaEdit=1;metaData={&quot;c4Type&quot;:{&quot;editable&quot;:false}};points=[[0.25,0,0],[0.5,0,0],[0.75,0,0],[1,0.25,0],[1,0.5,0],[1,0.75,0],[0.75,1,0],[0.5,1,0],[0.25,1,0],[0,0.75,0],[0,0.5,0],[0,0.25,0]];" parent="QX4rX3mfWf0FfhNPfQnd-1" vertex="1">
            <mxGeometry x="170" y="580" width="160" height="110.00000000000001" as="geometry" />
          </mxCell>
        </object>
        <object placeholders="1" c4Name="Send messages" c4Type="Component" c4Technology="Java" c4Description="Sending a message from the current user &#xa;to the selected contact" label="&lt;b&gt;%c4Name%&lt;/b&gt;&lt;div&gt;[%c4Type%: %c4Technology%]&lt;/div&gt;&lt;br&gt;&lt;div&gt;%c4Description%&lt;/div&gt;" id="EmnsGkhcUmimmquGP0d--1">
          <mxCell style="rounded=1;whiteSpace=wrap;html=1;labelBackgroundColor=none;fillColor=#85BBF0;fontColor=#ffffff;align=center;arcSize=10;strokeColor=#78A8D8;metaEdit=1;metaData={&quot;c4Type&quot;:{&quot;editable&quot;:false}};points=[[0.25,0,0],[0.5,0,0],[0.75,0,0],[1,0.25,0],[1,0.5,0],[1,0.75,0],[0.75,1,0],[0.5,1,0],[0.25,1,0],[0,0.75,0],[0,0.5,0],[0,0.25,0]];" parent="QX4rX3mfWf0FfhNPfQnd-1" vertex="1">
            <mxGeometry x="360" y="580" width="160" height="110.00000000000001" as="geometry" />
          </mxCell>
        </object>
        <object placeholders="1" c4Name="Delete messages" c4Type="Component" c4Technology="Java" c4Description="Delete a message sent by the current user in &#xa;the conversation with the selected contact" label="&lt;b&gt;%c4Name%&lt;/b&gt;&lt;div&gt;[%c4Type%: %c4Technology%]&lt;/div&gt;&lt;br&gt;&lt;div&gt;%c4Description%&lt;/div&gt;" id="EmnsGkhcUmimmquGP0d--2">
          <mxCell style="rounded=1;whiteSpace=wrap;html=1;labelBackgroundColor=none;fillColor=#85BBF0;fontColor=#ffffff;align=center;arcSize=10;strokeColor=#78A8D8;metaEdit=1;metaData={&quot;c4Type&quot;:{&quot;editable&quot;:false}};points=[[0.25,0,0],[0.5,0,0],[0.75,0,0],[1,0.25,0],[1,0.5,0],[1,0.75,0],[0.75,1,0],[0.5,1,0],[0.25,1,0],[0,0.75,0],[0,0.5,0],[0,0.25,0]];" parent="QX4rX3mfWf0FfhNPfQnd-1" vertex="1">
            <mxGeometry x="544" y="580" width="160" height="140" as="geometry" />
          </mxCell>
        </object>
        <mxCell id="nG8YuCkV-VJ1jOARAMvB-0" value="&lt;span style=&quot;font-size: 23px&quot;&gt;C4 Diagram Messaging Module Backend&lt;/span&gt;" style="text;html=1;strokeColor=none;fillColor=none;align=center;verticalAlign=middle;whiteSpace=wrap;rounded=0;" parent="QX4rX3mfWf0FfhNPfQnd-1" vertex="1">
          <mxGeometry x="380" y="10" width="270" height="120" as="geometry" />
        </mxCell>
        <mxCell id="khPhi1jvVoZMHtFzV4vd-0" value="&lt;span style=&quot;font-size: 23px&quot;&gt;C4 Diagram Messaging Module FrontEnd&lt;/span&gt;" style="text;html=1;strokeColor=none;fillColor=none;align=center;verticalAlign=middle;whiteSpace=wrap;rounded=0;" parent="QX4rX3mfWf0FfhNPfQnd-1" vertex="1">
          <mxGeometry x="410" y="780" width="270" height="120" as="geometry" />
        </mxCell>
        <mxCell id="5uIkAF7zUP4JdlkCsUGo-11" style="edgeStyle=orthogonalEdgeStyle;rounded=0;orthogonalLoop=1;jettySize=auto;html=1;" parent="QX4rX3mfWf0FfhNPfQnd-1" source="5uIkAF7zUP4JdlkCsUGo-12" target="5uIkAF7zUP4JdlkCsUGo-15" edge="1">
          <mxGeometry relative="1" as="geometry">
            <mxPoint x="533" y="1110" as="targetPoint" />
          </mxGeometry>
        </mxCell>
        <object placeholders="1" c4Name="User" c4Type="Person" c4Description="User that selected a contact &#xa;from the list of contacts" label="&lt;b&gt;%c4Name%&lt;/b&gt;&lt;div&gt;[%c4Type%]&lt;/div&gt;&lt;br&gt;&lt;div&gt;%c4Description%&lt;/div&gt;" id="5uIkAF7zUP4JdlkCsUGo-12">
          <mxCell style="html=1;dashed=0;whitespace=wrap;fillColor=#08427b;strokeColor=none;fontColor=#ffffff;shape=mxgraph.c4.person;align=center;metaEdit=1;points=[[0.5,0,0],[1,0.5,0],[1,0.75,0],[0.75,1,0],[0.5,1,0],[0.25,1,0],[0,0.75,0],[0,0.5,0]];metaData={&quot;c4Type&quot;:{&quot;editable&quot;:false}};" parent="QX4rX3mfWf0FfhNPfQnd-1" vertex="1">
            <mxGeometry x="471" y="880" width="156" height="130" as="geometry" />
          </mxCell>
        </object>
        <mxCell id="5uIkAF7zUP4JdlkCsUGo-13" value="Successeful login" style="text;html=1;align=center;verticalAlign=middle;resizable=0;points=[];autosize=1;" parent="QX4rX3mfWf0FfhNPfQnd-1" vertex="1">
          <mxGeometry x="478" y="1050" width="110" height="20" as="geometry" />
        </mxCell>
        <mxCell id="5uIkAF7zUP4JdlkCsUGo-14" style="edgeStyle=orthogonalEdgeStyle;rounded=0;orthogonalLoop=1;jettySize=auto;html=1;" parent="QX4rX3mfWf0FfhNPfQnd-1" source="5uIkAF7zUP4JdlkCsUGo-15" edge="1">
          <mxGeometry relative="1" as="geometry">
            <mxPoint x="129" y="1260" as="targetPoint" />
          </mxGeometry>
        </mxCell>
        <object placeholders="1" c4Name="hostname" c4Type="DeploymentNode" c4OperationSystem="operationSystem" c4ScalingFactor="scalingFactor" label="&lt;div style=&quot;text-align: left&quot;&gt;%c4Name%&lt;/div&gt;&lt;div style=&quot;text-align: left&quot;&gt;[%c4OperationSystem%]&lt;/div&gt;&lt;div style=&quot;text-align: right&quot;&gt;%c4ScalingFactor%&lt;/div&gt;" id="5uIkAF7zUP4JdlkCsUGo-15">
          <mxCell style="rounded=1;whiteSpace=wrap;html=1;labelBackgroundColor=none;fillColor=#ffffff;fontColor=#000000;align=left;arcSize=5;strokeColor=#000000;verticalAlign=bottom;metaEdit=1;metaData={&quot;c4Type&quot;:{&quot;editable&quot;:false}};points=[[0.25,0,0],[0.5,0,0],[0.75,0,0],[1,0.25,0],[1,0.5,0],[1,0.75,0],[0.75,1,0],[0.5,1,0],[0.25,1,0],[0,0.75,0],[0,0.5,0],[0,0.25,0]];" parent="QX4rX3mfWf0FfhNPfQnd-1" vertex="1">
            <mxGeometry x="239" y="1120" width="620" height="280" as="geometry" />
          </mxCell>
        </object>
        <object placeholders="1" c4Name="Send messages" c4Type="Software System" c4Description="Send messages" label="&lt;b&gt;%c4Name%&lt;/b&gt;&lt;div&gt;[%c4Type%]&lt;/div&gt;&lt;br&gt;&lt;div&gt;%c4Description%&lt;/div&gt;" id="5uIkAF7zUP4JdlkCsUGo-16">
          <mxCell style="rounded=1;whiteSpace=wrap;html=1;labelBackgroundColor=none;fillColor=#1168BD;fontColor=#ffffff;align=center;arcSize=10;strokeColor=#1168BD;metaEdit=1;metaData={&quot;c4Type&quot;:{&quot;editable&quot;:false}};points=[[0.25,0,0],[0.5,0,0],[0.75,0,0],[1,0.25,0],[1,0.5,0],[1,0.75,0],[0.75,1,0],[0.5,1,0],[0.25,1,0],[0,0.75,0],[0,0.5,0],[0,0.25,0]];" parent="QX4rX3mfWf0FfhNPfQnd-1" vertex="1">
            <mxGeometry x="309" y="1140" width="160" height="110.00000000000001" as="geometry" />
          </mxCell>
        </object>
        <object placeholders="1" c4Name="Receive" c4Type="Software System" c4Description="Receive messages" label="&lt;b&gt;%c4Name%&lt;/b&gt;&lt;div&gt;[%c4Type%]&lt;/div&gt;&lt;br&gt;&lt;div&gt;%c4Description%&lt;/div&gt;" id="5uIkAF7zUP4JdlkCsUGo-17">
          <mxCell style="rounded=1;whiteSpace=wrap;html=1;labelBackgroundColor=none;fillColor=#1168BD;fontColor=#ffffff;align=center;arcSize=10;strokeColor=#1168BD;metaEdit=1;metaData={&quot;c4Type&quot;:{&quot;editable&quot;:false}};points=[[0.25,0,0],[0.5,0,0],[0.75,0,0],[1,0.25,0],[1,0.5,0],[1,0.75,0],[0.75,1,0],[0.5,1,0],[0.25,1,0],[0,0.75,0],[0,0.5,0],[0,0.25,0]];" parent="QX4rX3mfWf0FfhNPfQnd-1" vertex="1">
            <mxGeometry x="489" y="1140" width="160" height="110.00000000000001" as="geometry" />
          </mxCell>
        </object>
        <object placeholders="1" c4Name="Delete" c4Type="Software System" c4Description="Delete messages" label="&lt;b&gt;%c4Name%&lt;/b&gt;&lt;div&gt;[%c4Type%]&lt;/div&gt;&lt;br&gt;&lt;div&gt;%c4Description%&lt;/div&gt;" id="5uIkAF7zUP4JdlkCsUGo-18">
          <mxCell style="rounded=1;whiteSpace=wrap;html=1;labelBackgroundColor=none;fillColor=#1168BD;fontColor=#ffffff;align=center;arcSize=10;strokeColor=#1168BD;metaEdit=1;metaData={&quot;c4Type&quot;:{&quot;editable&quot;:false}};points=[[0.25,0,0],[0.5,0,0],[0.75,0,0],[1,0.25,0],[1,0.5,0],[1,0.75,0],[0.75,1,0],[0.5,1,0],[0.25,1,0],[0,0.75,0],[0,0.5,0],[0,0.25,0]];" parent="QX4rX3mfWf0FfhNPfQnd-1" vertex="1">
            <mxGeometry x="669" y="1140" width="160" height="110.00000000000001" as="geometry" />
          </mxCell>
        </object>
        <object placeholders="1" c4Name="Comment" c4Type="Software System" c4Description="Comment messages" label="&lt;b&gt;%c4Name%&lt;/b&gt;&lt;div&gt;[%c4Type%]&lt;/div&gt;&lt;br&gt;&lt;div&gt;%c4Description%&lt;/div&gt;" id="5uIkAF7zUP4JdlkCsUGo-19">
          <mxCell style="rounded=1;whiteSpace=wrap;html=1;labelBackgroundColor=none;fillColor=#1168BD;fontColor=#ffffff;align=center;arcSize=10;strokeColor=#1168BD;metaEdit=1;metaData={&quot;c4Type&quot;:{&quot;editable&quot;:false}};points=[[0.25,0,0],[0.5,0,0],[0.75,0,0],[1,0.25,0],[1,0.5,0],[1,0.75,0],[0.75,1,0],[0.5,1,0],[0.25,1,0],[0,0.75,0],[0,0.5,0],[0,0.25,0]];" parent="QX4rX3mfWf0FfhNPfQnd-1" vertex="1">
            <mxGeometry x="369" y="1270" width="160" height="110.00000000000001" as="geometry" />
          </mxCell>
        </object>
        <object placeholders="1" c4Name="React" c4Type="Software System" c4Description="React to messages" label="&lt;b&gt;%c4Name%&lt;/b&gt;&lt;div&gt;[%c4Type%]&lt;/div&gt;&lt;br&gt;&lt;div&gt;%c4Description%&lt;/div&gt;" id="5uIkAF7zUP4JdlkCsUGo-20">
          <mxCell style="rounded=1;whiteSpace=wrap;html=1;labelBackgroundColor=none;fillColor=#1168BD;fontColor=#ffffff;align=center;arcSize=10;strokeColor=#1168BD;metaEdit=1;metaData={&quot;c4Type&quot;:{&quot;editable&quot;:false}};points=[[0.25,0,0],[0.5,0,0],[0.75,0,0],[1,0.25,0],[1,0.5,0],[1,0.75,0],[0.75,1,0],[0.5,1,0],[0.25,1,0],[0,0.75,0],[0,0.5,0],[0,0.25,0]];" parent="QX4rX3mfWf0FfhNPfQnd-1" vertex="1">
            <mxGeometry x="609" y="1270" width="160" height="110.00000000000001" as="geometry" />
          </mxCell>
        </object>
        <object placeholders="1" c4Name="API" c4Type="Software System" c4Description="API channel" label="&lt;b&gt;%c4Name%&lt;/b&gt;&lt;div&gt;[%c4Type%]&lt;/div&gt;&lt;br&gt;&lt;div&gt;%c4Description%&lt;/div&gt;" id="5uIkAF7zUP4JdlkCsUGo-21">
          <mxCell style="rounded=1;whiteSpace=wrap;html=1;labelBackgroundColor=none;fillColor=#999999;fontColor=#ffffff;align=center;arcSize=10;strokeColor=#8A8A8A;metaEdit=1;metaData={&quot;c4Type&quot;:{&quot;editable&quot;:false}};points=[[0.25,0,0],[0.5,0,0],[0.75,0,0],[1,0.25,0],[1,0.5,0],[1,0.75,0],[0.75,1,0],[0.5,1,0],[0.25,1,0],[0,0.75,0],[0,0.5,0],[0,0.25,0]];" parent="QX4rX3mfWf0FfhNPfQnd-1" vertex="1">
            <mxGeometry x="-31" y="1205" width="160" height="110.00000000000001" as="geometry" />
          </mxCell>
        </object>
      </root>
    </mxGraphModel>
  </diagram>
  <diagram name="Contacts Module" id="qeo0WfuFc0jTOW3byDqY">
    <mxGraphModel dx="1038" dy="548" grid="1" gridSize="10" guides="1" tooltips="1" connect="1" arrows="1" fold="1" page="1" pageScale="1" pageWidth="827" pageHeight="1169" math="0" shadow="0">
      <root>
        <mxCell id="Lu1Hwj6ybN4QLjdbewPl-0" />
        <mxCell id="Lu1Hwj6ybN4QLjdbewPl-1" parent="Lu1Hwj6ybN4QLjdbewPl-0" />
        <object placeholders="1" c4Name="Contact Manager" c4Type="ExecutionEnvironment" c4Application="applicationAndVersion" label="&lt;div style=&quot;text-align: left&quot;&gt;%c4Name%&lt;/div&gt;&lt;div style=&quot;text-align: left&quot;&gt;[%c4Application%]&lt;/div&gt;" id="p2XI1ZwVT1ZBp_K5k9AN-0">
          <mxCell style="rounded=1;whiteSpace=wrap;html=1;labelBackgroundColor=none;fillColor=#ffffff;fontColor=#000000;align=left;arcSize=5;strokeColor=#000000;verticalAlign=bottom;metaEdit=1;metaData={&quot;c4Type&quot;:{&quot;editable&quot;:false}};points=[[0.25,0,0],[0.5,0,0],[0.75,0,0],[1,0.25,0],[1,0.5,0],[1,0.75,0],[0.75,1,0],[0.5,1,0],[0.25,1,0],[0,0.75,0],[0,0.5,0],[0,0.25,0]];" parent="Lu1Hwj6ybN4QLjdbewPl-1" vertex="1">
            <mxGeometry x="170" y="440" width="650" height="400" as="geometry" />
          </mxCell>
        </object>
        <object placeholders="1" c4Name="user" c4Type="Person" c4Description="logged in user" label="&lt;b&gt;%c4Name%&lt;/b&gt;&lt;div&gt;[%c4Type%]&lt;/div&gt;&lt;br&gt;&lt;div&gt;%c4Description%&lt;/div&gt;" id="p2XI1ZwVT1ZBp_K5k9AN-1">
          <mxCell style="html=1;dashed=0;whitespace=wrap;fillColor=#08427b;strokeColor=none;fontColor=#ffffff;shape=mxgraph.c4.person;align=center;metaEdit=1;points=[[0.5,0,0],[1,0.5,0],[1,0.75,0],[0.75,1,0],[0.5,1,0],[0.25,1,0],[0,0.75,0],[0,0.5,0]];metaData={&quot;c4Type&quot;:{&quot;editable&quot;:false}};" parent="Lu1Hwj6ybN4QLjdbewPl-1" vertex="1">
            <mxGeometry x="350" y="240" width="110.00000000000001" height="140" as="geometry" />
          </mxCell>
        </object>
        <mxCell id="p2XI1ZwVT1ZBp_K5k9AN-2" value="" style="endArrow=classic;startArrow=classic;html=1;entryX=0.5;entryY=1;entryDx=0;entryDy=0;entryPerimeter=0;" parent="Lu1Hwj6ybN4QLjdbewPl-1" target="p2XI1ZwVT1ZBp_K5k9AN-1" edge="1">
          <mxGeometry width="50" height="50" relative="1" as="geometry">
            <mxPoint x="405" y="440" as="sourcePoint" />
            <mxPoint x="449" y="390" as="targetPoint" />
          </mxGeometry>
        </mxCell>
        <object placeholders="1" c4Name="Contacts Loader" c4Type="Software System" c4Description="Loads every contact for a specific user" label="&lt;b&gt;%c4Name%&lt;/b&gt;&lt;div&gt;[%c4Type%]&lt;/div&gt;&lt;br&gt;&lt;div&gt;%c4Description%&lt;/div&gt;" id="p2XI1ZwVT1ZBp_K5k9AN-3">
          <mxCell style="rounded=1;whiteSpace=wrap;html=1;labelBackgroundColor=none;fillColor=#1168BD;fontColor=#ffffff;align=center;arcSize=10;strokeColor=#1168BD;metaEdit=1;metaData={&quot;c4Type&quot;:{&quot;editable&quot;:false}};points=[[0.25,0,0],[0.5,0,0],[0.75,0,0],[1,0.25,0],[1,0.5,0],[1,0.75,0],[0.75,1,0],[0.5,1,0],[0.25,1,0],[0,0.75,0],[0,0.5,0],[0,0.25,0]];" parent="Lu1Hwj6ybN4QLjdbewPl-1" vertex="1">
            <mxGeometry x="640" y="450" width="140" height="140" as="geometry" />
          </mxCell>
        </object>
        <object placeholders="1" c4Name="Contact Selector" c4Type="Software System" c4Description="Selects a contact from user contact list" label="&lt;b&gt;%c4Name%&lt;/b&gt;&lt;div&gt;[%c4Type%]&lt;/div&gt;&lt;br&gt;&lt;div&gt;%c4Description%&lt;/div&gt;" id="p2XI1ZwVT1ZBp_K5k9AN-4">
          <mxCell style="rounded=1;whiteSpace=wrap;html=1;labelBackgroundColor=none;fillColor=#1168BD;fontColor=#ffffff;align=center;arcSize=10;strokeColor=#1168BD;metaEdit=1;metaData={&quot;c4Type&quot;:{&quot;editable&quot;:false}};points=[[0.25,0,0],[0.5,0,0],[0.75,0,0],[1,0.25,0],[1,0.5,0],[1,0.75,0],[0.75,1,0],[0.5,1,0],[0.25,1,0],[0,0.75,0],[0,0.5,0],[0,0.25,0]];" parent="Lu1Hwj6ybN4QLjdbewPl-1" vertex="1">
            <mxGeometry x="180" y="450" width="150" height="140" as="geometry" />
          </mxCell>
        </object>
        <mxCell id="p2XI1ZwVT1ZBp_K5k9AN-5" value="The front-end send the information to the back-end" style="text;html=1;align=center;verticalAlign=middle;resizable=0;points=[];autosize=1;" parent="Lu1Hwj6ybN4QLjdbewPl-1" vertex="1">
          <mxGeometry x="110" y="400" width="290" height="20" as="geometry" />
        </mxCell>
        <mxCell id="p2XI1ZwVT1ZBp_K5k9AN-6" value="The back-end will send the contact list back" style="text;html=1;align=center;verticalAlign=middle;resizable=0;points=[];autosize=1;" parent="Lu1Hwj6ybN4QLjdbewPl-1" vertex="1">
          <mxGeometry x="420" y="400" width="250" height="20" as="geometry" />
        </mxCell>
        <mxCell id="p2XI1ZwVT1ZBp_K5k9AN-7" value="" style="endArrow=classic;startArrow=classic;html=1;exitX=1;exitY=0.5;exitDx=0;exitDy=0;exitPerimeter=0;entryX=0;entryY=0.5;entryDx=0;entryDy=0;entryPerimeter=0;" parent="Lu1Hwj6ybN4QLjdbewPl-1" source="p2XI1ZwVT1ZBp_K5k9AN-3" target="p2XI1ZwVT1ZBp_K5k9AN-8" edge="1">
          <mxGeometry width="50" height="50" relative="1" as="geometry">
            <mxPoint x="520" y="519.9999999999999" as="sourcePoint" />
            <mxPoint x="675" y="520" as="targetPoint" />
          </mxGeometry>
        </mxCell>
        <object placeholders="1" c4Type="Database" c4Technology="Technology" c4Description="Contact List" label="%c4Type%&lt;div&gt;[Container:&amp;nbsp;%c4Technology%]&lt;/div&gt;&lt;br&gt;&lt;div&gt;%c4Description%&lt;/div&gt;" id="p2XI1ZwVT1ZBp_K5k9AN-8">
          <mxCell style="shape=cylinder;whiteSpace=wrap;html=1;boundedLbl=1;rounded=0;labelBackgroundColor=none;fillColor=#438DD5;fontSize=12;fontColor=#ffffff;align=center;strokeColor=#3C7FC0;metaEdit=1;points=[[0.5,0,0],[1,0.25,0],[1,0.5,0],[1,0.75,0],[0.5,1,0],[0,0.75,0],[0,0.5,0],[0,0.25,0]];metaData={&quot;c4Type&quot;:{&quot;editable&quot;:false}};" parent="Lu1Hwj6ybN4QLjdbewPl-1" vertex="1">
            <mxGeometry x="860" y="450" width="160" height="140" as="geometry" />
          </mxCell>
        </object>
        <object placeholders="1" c4Name="3rd API" c4Type="Software System" c4Description="The API of existing messenger platforms" label="&lt;b&gt;%c4Name%&lt;/b&gt;&lt;div&gt;[%c4Type%]&lt;/div&gt;&lt;br&gt;&lt;div&gt;%c4Description%&lt;/div&gt;" id="p2XI1ZwVT1ZBp_K5k9AN-9">
          <mxCell style="rounded=1;whiteSpace=wrap;html=1;labelBackgroundColor=none;fillColor=#1168BD;fontColor=#ffffff;align=center;arcSize=10;strokeColor=#1168BD;metaEdit=1;metaData={&quot;c4Type&quot;:{&quot;editable&quot;:false}};points=[[0.25,0,0],[0.5,0,0],[0.75,0,0],[1,0.25,0],[1,0.5,0],[1,0.75,0],[0.75,1,0],[0.5,1,0],[0.25,1,0],[0,0.75,0],[0,0.5,0],[0,0.25,0]];" parent="Lu1Hwj6ybN4QLjdbewPl-1" vertex="1">
            <mxGeometry x="175" y="710" width="160" height="100" as="geometry" />
          </mxCell>
        </object>
        <mxCell id="p2XI1ZwVT1ZBp_K5k9AN-10" value="" style="endArrow=classic;startArrow=classic;html=1;entryX=0.5;entryY=1;entryDx=0;entryDy=0;entryPerimeter=0;exitX=0.5;exitY=0;exitDx=0;exitDy=0;exitPerimeter=0;" parent="Lu1Hwj6ybN4QLjdbewPl-1" source="p2XI1ZwVT1ZBp_K5k9AN-9" target="p2XI1ZwVT1ZBp_K5k9AN-4" edge="1">
          <mxGeometry width="50" height="50" relative="1" as="geometry">
            <mxPoint x="260" y="690" as="sourcePoint" />
            <mxPoint x="255" y="620" as="targetPoint" />
          </mxGeometry>
        </mxCell>
        <mxCell id="t8xRKsodEIif6azw6viQ-0" style="edgeStyle=orthogonalEdgeStyle;rounded=0;orthogonalLoop=1;jettySize=auto;html=1;" parent="Lu1Hwj6ybN4QLjdbewPl-1" source="t8xRKsodEIif6azw6viQ-1" target="t8xRKsodEIif6azw6viQ-4" edge="1">
          <mxGeometry relative="1" as="geometry">
            <mxPoint x="406.5" y="1330" as="targetPoint" />
          </mxGeometry>
        </mxCell>
        <object placeholders="1" c4Name="User" c4Type="Person" c4Description="User of the app" label="&lt;b&gt;%c4Name%&lt;/b&gt;&lt;div&gt;[%c4Type%]&lt;/div&gt;&lt;br&gt;&lt;div&gt;%c4Description%&lt;/div&gt;" id="t8xRKsodEIif6azw6viQ-1">
          <mxCell style="html=1;dashed=0;whitespace=wrap;fillColor=#08427b;strokeColor=none;fontColor=#ffffff;shape=mxgraph.c4.person;align=center;metaEdit=1;points=[[0.5,0,0],[1,0.5,0],[1,0.75,0],[0.75,1,0],[0.5,1,0],[0.25,1,0],[0,0.75,0],[0,0.5,0]];metaData={&quot;c4Type&quot;:{&quot;editable&quot;:false}};" parent="Lu1Hwj6ybN4QLjdbewPl-1" vertex="1">
            <mxGeometry x="351.5" y="1140" width="110.00000000000001" height="140" as="geometry" />
          </mxCell>
        </object>
        <mxCell id="t8xRKsodEIif6azw6viQ-2" style="edgeStyle=orthogonalEdgeStyle;rounded=0;orthogonalLoop=1;jettySize=auto;html=1;" parent="Lu1Hwj6ybN4QLjdbewPl-1" source="t8xRKsodEIif6azw6viQ-4" edge="1">
          <mxGeometry relative="1" as="geometry">
            <mxPoint x="212.5" y="1435" as="targetPoint" />
          </mxGeometry>
        </mxCell>
        <mxCell id="t8xRKsodEIif6azw6viQ-3" style="edgeStyle=orthogonalEdgeStyle;rounded=0;orthogonalLoop=1;jettySize=auto;html=1;" parent="Lu1Hwj6ybN4QLjdbewPl-1" source="t8xRKsodEIif6azw6viQ-4" edge="1">
          <mxGeometry relative="1" as="geometry">
            <mxPoint x="406.5" y="1565" as="targetPoint" />
          </mxGeometry>
        </mxCell>
        <object placeholders="1" c4Name="Contacts" c4Type="Software System" c4Description="Users contacts" label="&lt;b&gt;%c4Name%&lt;/b&gt;&lt;div&gt;[%c4Type%]&lt;/div&gt;&lt;br&gt;&lt;div&gt;%c4Description%&lt;/div&gt;" id="t8xRKsodEIif6azw6viQ-4">
          <mxCell style="rounded=1;whiteSpace=wrap;html=1;labelBackgroundColor=none;fillColor=#1168BD;fontColor=#ffffff;align=center;arcSize=10;strokeColor=#1168BD;metaEdit=1;metaData={&quot;c4Type&quot;:{&quot;editable&quot;:false}};points=[[0.25,0,0],[0.5,0,0],[0.75,0,0],[1,0.25,0],[1,0.5,0],[1,0.75,0],[0.75,1,0],[0.5,1,0],[0.25,1,0],[0,0.75,0],[0,0.5,0],[0,0.25,0]];" parent="Lu1Hwj6ybN4QLjdbewPl-1" vertex="1">
            <mxGeometry x="326.5" y="1380" width="160" height="110.00000000000001" as="geometry" />
          </mxCell>
        </object>
        <mxCell id="t8xRKsodEIif6azw6viQ-5" style="edgeStyle=orthogonalEdgeStyle;rounded=0;orthogonalLoop=1;jettySize=auto;html=1;" parent="Lu1Hwj6ybN4QLjdbewPl-1" source="t8xRKsodEIif6azw6viQ-6" target="t8xRKsodEIif6azw6viQ-9" edge="1">
          <mxGeometry relative="1" as="geometry">
            <mxPoint x="592.5" y="1320" as="targetPoint" />
          </mxGeometry>
        </mxCell>
        <mxCell id="t8xRKsodEIif6azw6viQ-6" value="Login successful" style="text;html=1;align=center;verticalAlign=middle;resizable=0;points=[];autosize=1;" parent="Lu1Hwj6ybN4QLjdbewPl-1" vertex="1">
          <mxGeometry x="356.5" y="1310" width="100" height="20" as="geometry" />
        </mxCell>
        <mxCell id="t8xRKsodEIif6azw6viQ-7" style="edgeStyle=orthogonalEdgeStyle;rounded=0;orthogonalLoop=1;jettySize=auto;html=1;" parent="Lu1Hwj6ybN4QLjdbewPl-1" target="t8xRKsodEIif6azw6viQ-4" edge="1">
          <mxGeometry relative="1" as="geometry">
            <mxPoint x="212.5" y="1435" as="sourcePoint" />
          </mxGeometry>
        </mxCell>
        <object placeholders="1" c4Name="API" c4Type="Software System" c4Description="Channel API" label="&lt;b&gt;%c4Name%&lt;/b&gt;&lt;div&gt;[%c4Type%]&lt;/div&gt;&lt;br&gt;&lt;div&gt;%c4Description%&lt;/div&gt;" id="t8xRKsodEIif6azw6viQ-8">
          <mxCell style="rounded=1;whiteSpace=wrap;html=1;labelBackgroundColor=none;fillColor=#999999;fontColor=#ffffff;align=center;arcSize=10;strokeColor=#8A8A8A;metaEdit=1;metaData={&quot;c4Type&quot;:{&quot;editable&quot;:false}};points=[[0.25,0,0],[0.5,0,0],[0.75,0,0],[1,0.25,0],[1,0.5,0],[1,0.75,0],[0.75,1,0],[0.5,1,0],[0.25,1,0],[0,0.75,0],[0,0.5,0],[0,0.25,0]];" parent="Lu1Hwj6ybN4QLjdbewPl-1" vertex="1">
            <mxGeometry x="52.5" y="1380" width="160" height="110.00000000000001" as="geometry" />
          </mxCell>
        </object>
        <object placeholders="1" c4Type="Database" c4Technology="Technology" c4Description="Local DataBase on device" label="%c4Type%&lt;div&gt;[Container:&amp;nbsp;%c4Technology%]&lt;/div&gt;&lt;br&gt;&lt;div&gt;%c4Description%&lt;/div&gt;" id="t8xRKsodEIif6azw6viQ-9">
          <mxCell style="shape=cylinder;whiteSpace=wrap;html=1;boundedLbl=1;rounded=0;labelBackgroundColor=none;fillColor=#438DD5;fontSize=12;fontColor=#ffffff;align=center;strokeColor=#3C7FC0;metaEdit=1;points=[[0.5,0,0],[1,0.25,0],[1,0.5,0],[1,0.75,0],[0.5,1,0],[0,0.75,0],[0,0.5,0],[0,0.25,0]];metaData={&quot;c4Type&quot;:{&quot;editable&quot;:false}};" parent="Lu1Hwj6ybN4QLjdbewPl-1" vertex="1">
            <mxGeometry x="562.5" y="1250" width="160" height="140" as="geometry" />
          </mxCell>
        </object>
        <object placeholders="1" c4Name="Contacts actions" c4Type="DeploymentNode" c4OperationSystem="operationSystem" c4ScalingFactor="scalingFactor" label="&lt;div style=&quot;text-align: left&quot;&gt;%c4Name%&lt;/div&gt;&lt;div style=&quot;text-align: left&quot;&gt;[%c4OperationSystem%]&lt;/div&gt;&lt;div style=&quot;text-align: right&quot;&gt;%c4ScalingFactor%&lt;/div&gt;" id="t8xRKsodEIif6azw6viQ-10">
          <mxCell style="rounded=1;whiteSpace=wrap;html=1;labelBackgroundColor=none;fillColor=#ffffff;fontColor=#000000;align=left;arcSize=5;strokeColor=#000000;verticalAlign=bottom;metaEdit=1;metaData={&quot;c4Type&quot;:{&quot;editable&quot;:false}};points=[[0.25,0,0],[0.5,0,0],[0.75,0,0],[1,0.25,0],[1,0.5,0],[1,0.75,0],[0.75,1,0],[0.5,1,0],[0.25,1,0],[0,0.75,0],[0,0.5,0],[0,0.25,0]];" parent="Lu1Hwj6ybN4QLjdbewPl-1" vertex="1">
            <mxGeometry x="202.5" y="1570" width="410" height="160" as="geometry" />
          </mxCell>
        </object>
        <object placeholders="1" c4Name="Delete" c4Type="Software System" c4Description="Delete Contacts" label="&lt;b&gt;%c4Name%&lt;/b&gt;&lt;div&gt;[%c4Type%]&lt;/div&gt;&lt;br&gt;&lt;div&gt;%c4Description%&lt;/div&gt;" id="t8xRKsodEIif6azw6viQ-11">
          <mxCell style="rounded=1;whiteSpace=wrap;html=1;labelBackgroundColor=none;fillColor=#1168BD;fontColor=#ffffff;align=center;arcSize=10;strokeColor=#1168BD;metaEdit=1;metaData={&quot;c4Type&quot;:{&quot;editable&quot;:false}};points=[[0.25,0,0],[0.5,0,0],[0.75,0,0],[1,0.25,0],[1,0.5,0],[1,0.75,0],[0.75,1,0],[0.5,1,0],[0.25,1,0],[0,0.75,0],[0,0.5,0],[0,0.25,0]];" parent="Lu1Hwj6ybN4QLjdbewPl-1" vertex="1">
            <mxGeometry x="232.5" y="1590" width="160" height="110.00000000000001" as="geometry" />
          </mxCell>
        </object>
        <object placeholders="1" c4Name="Visualize" c4Type="Software System" c4Description="Visualize Contacts" label="&lt;b&gt;%c4Name%&lt;/b&gt;&lt;div&gt;[%c4Type%]&lt;/div&gt;&lt;br&gt;&lt;div&gt;%c4Description%&lt;/div&gt;" id="t8xRKsodEIif6azw6viQ-12">
          <mxCell style="rounded=1;whiteSpace=wrap;html=1;labelBackgroundColor=none;fillColor=#1168BD;fontColor=#ffffff;align=center;arcSize=10;strokeColor=#1168BD;metaEdit=1;metaData={&quot;c4Type&quot;:{&quot;editable&quot;:false}};points=[[0.25,0,0],[0.5,0,0],[0.75,0,0],[1,0.25,0],[1,0.5,0],[1,0.75,0],[0.75,1,0],[0.5,1,0],[0.25,1,0],[0,0.75,0],[0,0.5,0],[0,0.25,0]];" parent="Lu1Hwj6ybN4QLjdbewPl-1" vertex="1">
            <mxGeometry x="432.5" y="1590" width="160" height="110.00000000000001" as="geometry" />
          </mxCell>
        </object>
        <mxCell id="t8xRKsodEIif6azw6viQ-13" value="Send Informations" style="text;html=1;align=center;verticalAlign=middle;resizable=0;points=[];autosize=1;" parent="Lu1Hwj6ybN4QLjdbewPl-1" vertex="1">
          <mxGeometry x="217.5" y="1410" width="110" height="20" as="geometry" />
        </mxCell>
        <mxCell id="bYyO0OUG8e-49s-ISmI_-0" value="&lt;font style=&quot;font-size: 23px&quot;&gt;C4 Diagram Contacts Module Backend&lt;/font&gt;" style="text;html=1;strokeColor=none;fillColor=none;align=center;verticalAlign=middle;whiteSpace=wrap;rounded=0;" parent="Lu1Hwj6ybN4QLjdbewPl-1" vertex="1">
          <mxGeometry x="240" y="160" width="295" height="20" as="geometry" />
        </mxCell>
        <mxCell id="pFgSiYhF6RkGCB3D4h0J-0" value="&lt;font style=&quot;font-size: 23px&quot;&gt;C4 Diagram Contacts Module Frontend&lt;br&gt;&lt;/font&gt;" style="text;html=1;strokeColor=none;fillColor=none;align=center;verticalAlign=middle;whiteSpace=wrap;rounded=0;" parent="Lu1Hwj6ybN4QLjdbewPl-1" vertex="1">
          <mxGeometry x="242.5" y="1060" width="295" height="20" as="geometry" />
        </mxCell>
      </root>
    </mxGraphModel>
  </diagram>
</mxfile>
